<?xml version="1.0" standalone="no"?>
<!DOCTYPE svg PUBLIC "-//W3C//DTD SVG 20010904//EN"
 "http://www.w3.org/TR/2001/REC-SVG-20010904/DTD/svg10.dtd">
<svg version="1.0" xmlns="http://www.w3.org/2000/svg"
 width="626.000000pt" height="417.000000pt" viewBox="0 0 626.000000 417.000000"
 preserveAspectRatio="xMidYMid meet">

<g transform="translate(0.000000,417.000000) scale(0.100000,-0.100000)"
fill="#000000" stroke="none">
<path d="M1648 2837 c-13 -30 -10 -113 3 -100 5 5 9 34 7 64 -2 36 -6 48 -10
36z"/>
<path d="M1660 2719 c0 -7 12 -33 27 -58 14 -25 30 -59 34 -76 5 -23 7 -25 8
-8 1 13 -15 52 -34 89 -19 36 -35 60 -35 53z"/>
<path d="M1602 2661 c-22 -40 -32 -71 -31 -97 l2 -39 6 45 c4 25 19 67 35 93
16 26 27 50 24 52 -2 2 -18 -22 -36 -54z"/>
<path d="M2245 2459 c-116 -72 -213 -136 -217 -143 -4 -6 -7 -72 -6 -146 l2
-135 6 140 5 140 120 76 c66 42 161 101 210 132 l90 54 6 -111 5 -111 2 118
c1 64 -1 117 -6 117 -4 0 -102 -59 -217 -131z"/>
<path d="M3962 2567 c-18 -19 -22 -35 -22 -89 0 -44 -4 -68 -12 -71 -8 -3 -6
-6 5 -6 15 -1 17 9 17 67 0 75 20 121 40 92 11 -18 13 -1 2 18 -6 9 -14 6 -30
-11z"/>
<path d="M4758 2563 c23 -2 59 -2 80 0 20 2 1 4 -43 4 -44 0 -61 -2 -37 -4z"/>
<path d="M4630 2536 c0 -13 7 -29 15 -36 11 -9 15 -41 18 -128 l3 -117 2 121
c2 101 -1 123 -13 128 -24 9 -18 44 8 49 19 4 18 4 -5 6 -23 1 -28 -3 -28 -23z"/>
<path d="M4880 2545 c0 -8 -9 -19 -20 -25 -18 -10 -20 -20 -18 -123 l2 -112 3
112 c3 101 6 112 23 118 17 5 30 45 15 45 -3 0 -5 -7 -5 -15z"/>
<path d="M1712 2497 c-2 -41 1 -50 18 -54 11 -3 20 -14 20 -24 0 -11 5 -19 10
-19 6 0 10 -137 10 -390 0 -365 1 -390 18 -389 10 0 12 3 5 6 -10 4 -13 91
-13 388 0 245 -4 386 -10 390 -5 3 -10 15 -10 26 0 12 -7 19 -19 19 -16 0 -21
8 -24 48 l-3 47 -2 -48z"/>
<path d="M3992 2473 l-2 -73 43 2 42 1 -37 4 -37 4 -4 67 -3 67 -2 -72z"/>
<path d="M1580 2486 c0 -15 -7 -26 -20 -29 -15 -4 -20 -13 -18 -39 l1 -33 4
33 c3 24 9 32 24 32 14 0 19 7 19 30 0 17 -2 30 -5 30 -3 0 -5 -11 -5 -24z"/>
<path d="M2612 2444 c-12 -8 -22 -19 -22 -25 0 -5 9 0 21 12 18 18 23 19 42 6
20 -13 23 -26 28 -118 l5 -104 2 105 2 106 -28 16 c-26 16 -31 16 -50 2z"/>
<path d="M2767 2433 c-4 -3 -7 -123 -7 -265 0 -242 -1 -259 -17 -256 -16 3
-19 21 -23 148 l-6 145 -2 -137 c-2 -143 1 -168 24 -168 11 0 14 -17 14 -71 0
-44 4 -68 10 -64 6 4 10 127 10 336 0 181 3 329 6 329 3 0 37 -20 75 -45 l69
-45 2 -57 2 -58 3 54 c5 63 -3 74 -89 125 -66 40 -62 38 -71 29z"/>
<path d="M4105 2415 c23 -8 83 -10 79 -3 -3 4 -24 8 -47 7 -23 0 -37 -2 -32
-4z"/>
<path d="M3740 2391 c0 -15 -8 -21 -32 -23 l-33 -3 -3 -319 c-2 -312 -3 -318
-22 -313 -11 3 -20 1 -20 -5 0 -5 10 -8 23 -6 l22 3 3 318 2 317 35 0 c28 0
35 4 35 20 0 17 8 20 83 23 l82 3 -87 2 c-81 2 -88 0 -88 -17z"/>
<path d="M1512 2053 c1 -192 4 -294 5 -228 7 302 7 575 1 575 -5 0 -7 -156 -6
-347z"/>
<path d="M4182 2370 c3 -9 20 -16 41 -18 l37 -3 3 -222 3 -222 -1 225 0 225
-30 3 c-16 2 -36 9 -44 15 -11 10 -13 9 -9 -3z"/>
<path d="M2593 2300 c0 -41 2 -58 4 -37 2 20 2 54 0 75 -2 20 -4 3 -4 -38z"/>
<path d="M3373 2336 c-31 -26 -33 -32 -33 -91 0 -41 -4 -65 -12 -68 -8 -3 -6
-6 4 -6 14 -1 18 11 20 70 3 61 6 74 26 87 l22 14 0 -81 0 -81 83 0 c51 0 88
-5 95 -12 8 -8 12 -8 12 -1 0 17 -26 23 -105 23 l-74 0 -3 86 -3 87 -32 -27z"/>
<path d="M3041 2295 c-111 -60 -101 -18 -101 -417 0 -275 -3 -349 -12 -346 -9
3 -15 45 -18 144 l-6 139 -2 -136 c-2 -135 3 -159 35 -159 10 0 13 74 15 358
l3 357 75 43 c41 23 80 42 87 42 9 0 13 -29 16 -97 l3 -98 0 100 c-1 119 -3
120 -95 70z"/>
<path d="M1877 2244 c-13 -17 -17 -37 -14 -67 l4 -42 1 46 c1 27 8 52 17 59
13 11 15 4 15 -53 0 -36 3 -68 8 -70 8 -5 0 138 -8 146 -3 3 -13 -6 -23 -19z"/>
<path d="M4852 2227 l-2 -39 38 4 c32 3 37 0 40 -20 3 -17 -2 -25 -17 -29 -21
-5 -21 -10 -19 -247 l3 -241 2 236 c3 229 4 237 24 242 16 4 20 12 17 39 -3
31 -5 33 -40 30 -35 -3 -37 -1 -41 30 -4 32 -4 32 -5 -5z"/>
<path d="M4651 2214 c0 -11 3 -14 6 -6 3 7 2 16 -1 19 -3 4 -6 -2 -5 -13z"/>
<path d="M5145 2199 c-34 -30 -35 -33 -33 -98 l2 -66 3 67 c4 63 6 69 37 93
18 14 36 25 40 25 4 0 23 -12 41 -26 25 -19 35 -35 38 -62 l4 -37 1 37 c2 31
-4 41 -35 67 -21 17 -43 31 -50 31 -7 0 -28 -14 -48 -31z"/>
<path d="M2583 2203 c-22 -4 -23 -7 -23 -138 0 -73 -3 -142 -6 -152 -5 -15 -4
-15 5 -3 6 9 11 69 11 148 0 125 1 132 20 132 11 0 20 5 20 10 0 6 -1 9 -2 9
-2 -1 -13 -4 -25 -6z"/>
<path d="M4580 2181 c0 -11 9 -26 19 -33 11 -8 21 -29 24 -48 l4 -35 1 37 c2
28 -3 40 -18 48 -27 14 -25 38 3 43 19 4 18 4 -5 6 -22 1 -28 -4 -28 -18z"/>
<path d="M2914 2010 c0 -96 2 -136 3 -87 2 48 2 126 0 175 -1 48 -3 8 -3 -88z"/>
<path d="M3220 2157 c0 -13 -9 -17 -35 -17 l-35 0 0 -306 c0 -201 -3 -303 -10
-299 -6 4 -11 82 -12 193 l-3 187 -2 -184 c-3 -178 1 -211 28 -211 5 0 9 137
9 305 l0 305 30 0 c29 0 51 23 36 37 -3 4 -6 -1 -6 -10z"/>
<path d="M3570 2139 c0 -5 13 -9 30 -9 l30 0 3 -182 3 -183 -1 185 0 184 -32
7 c-18 3 -33 3 -33 -2z"/>
<path d="M1870 2122 c0 -6 -15 -12 -32 -14 l-33 -3 0 -170 -1 -170 3 168 3
167 30 0 c28 0 48 15 36 27 -3 4 -6 1 -6 -5z"/>
<path d="M1013 2086 c-16 -20 -23 -42 -23 -72 0 -43 0 -44 -34 -44 -49 0 -66
-9 -65 -34 0 -20 1 -20 8 -1 6 15 20 21 52 25 l44 5 3 47 c2 25 10 52 18 58
12 11 14 3 14 -53 l0 -65 44 -3 c24 -2 42 -1 39 4 -2 4 -19 7 -38 7 l-34 0 -3
77 -3 78 -22 -29z"/>
<path d="M5262 2017 c-2 -60 0 -70 17 -74 18 -5 30 -50 32 -127 0 -17 3 -25 6
-18 3 8 2 43 -2 79 -5 52 -11 66 -25 70 -16 4 -20 17 -23 72 l-3 66 -2 -68z"/>
<path d="M1246 2044 c-9 -8 -16 -31 -16 -49 0 -29 -4 -34 -27 -38 -26 -4 -26
-4 5 -6 31 -1 32 0 32 38 0 49 26 77 33 34 4 -27 4 -27 6 5 1 35 -9 40 -33 16z"/>
<path d="M4428 2046 c-11 -11 -18 -33 -18 -57 0 -38 -1 -39 -35 -39 -19 0 -35
-3 -35 -8 0 -4 18 -6 40 -4 40 4 40 4 40 47 0 61 18 67 22 8 l3 -48 43 -3 c39
-3 42 -5 42 -33 0 -29 1 -30 43 -27 l42 3 1 78 0 77 -3 -75 -4 -75 -34 0 c-29
0 -34 4 -37 28 -3 23 -8 28 -43 32 l-40 5 -5 54 c-5 52 -6 54 -22 37z"/>
<path d="M4995 2037 l-40 -23 -3 -199 c-2 -144 -6 -201 -15 -207 -8 -5 -7 -8
6 -8 16 0 17 16 17 205 l0 205 40 20 c21 11 44 20 49 20 5 0 12 -21 14 -47 l4
-48 -1 50 c-1 60 -13 65 -71 32z"/>
<path d="M2475 1736 c0 -249 2 -290 15 -293 11 -3 12 -2 3 4 -10 7 -13 82 -16
293 l-2 285 0 -289z"/>
<path d="M1994 1840 c0 -96 2 -136 3 -87 2 48 2 126 0 175 -1 48 -3 8 -3 -88z"/>
<path d="M5118 1970 c-2 -22 0 -40 4 -40 5 0 8 18 8 40 0 22 -2 40 -4 40 -2 0
-6 -18 -8 -40z"/>
<path d="M1281 1968 c-1 -25 2 -28 33 -28 19 0 37 -5 39 -10 3 -6 4 -5 3 2 -1
7 -17 14 -34 16 -22 2 -32 9 -35 25 -4 18 -5 17 -6 -5z"/>
<path d="M2030 1795 c0 -156 -7 -204 -23 -162 -3 7 -6 5 -6 -5 -1 -12 6 -18
19 -18 19 0 20 7 20 180 0 99 -2 180 -5 180 -3 0 -5 -79 -5 -175z"/>
<path d="M1150 1911 c0 -11 -8 -22 -17 -24 -14 -4 -12 -5 5 -6 17 -1 22 4 22
24 0 14 -2 25 -5 25 -3 0 -5 -9 -5 -19z"/>
<path d="M5080 1895 c0 -19 2 -35 4 -35 2 0 6 16 8 35 2 19 0 35 -4 35 -4 0
-8 -16 -8 -35z"/>
<path d="M4337 1906 c-5 -14 -15 -17 -37 -14 -17 3 -30 1 -30 -4 0 -11 51 -10
69 1 7 5 11 15 9 22 -3 9 -6 8 -11 -5z"/>
<path d="M843 1903 l-63 -4 2 -37 c1 -37 1 -37 5 -4 4 32 5 32 58 32 30 0 57
5 60 10 3 6 5 9 3 8 -2 -1 -31 -3 -65 -5z"/>
<path d="M1361 1894 c0 -11 3 -14 6 -6 3 7 2 16 -1 19 -3 4 -6 -2 -5 -13z"/>
<path d="M2522 1793 c1 -122 6 -108 10 35 2 45 0 82 -4 82 -5 0 -7 -53 -6
-117z"/>
<path d="M5055 1758 c0 -151 0 -153 23 -156 22 -3 22 -3 20 115 l-2 118 -3
-112 c-3 -90 -7 -113 -18 -113 -12 0 -15 28 -18 150 l-3 150 1 -152z"/>
<path d="M1423 1883 c42 -4 47 -7 47 -29 0 -19 -5 -24 -25 -24 -14 0 -25 -4
-25 -8 0 -5 14 -7 31 -4 27 4 30 8 27 36 -3 30 -5 31 -53 32 l-50 1 48 -4z"/>
<path d="M812 1834 c14 -4 18 -20 21 -77 l4 -72 -1 75 c-1 67 -3 75 -21 77
-15 1 -16 1 -3 -3z"/>
<path d="M1414 1690 l1 -105 45 -1 45 -2 -40 7 -40 6 -6 100 -6 100 1 -105z"/>
<path d="M5321 1749 c0 -14 2 -54 5 -88 l7 -61 53 0 c61 0 77 -23 24 -33 l-30
-6 0 -105 c0 -57 3 -111 6 -120 5 -14 41 -16 308 -14 l301 3 -300 5 -300 5 0
110 0 110 28 3 c23 3 28 8 25 25 -3 19 -10 22 -55 25 l-51 3 -10 82 c-5 45
-10 70 -11 56z"/>
<path d="M2744 1590 c0 -80 2 -112 3 -72 2 39 2 105 0 145 -1 39 -3 7 -3 -73z"/>
<path d="M823 1620 c0 -36 2 -50 4 -32 2 17 2 47 0 65 -2 17 -4 3 -4 -33z"/>
<path d="M1519 1622 c-3 -20 -2 -29 4 -23 5 5 7 19 5 32 -3 20 -5 19 -9 -9z"/>
<path d="M2530 1546 c0 -58 -4 -86 -12 -89 -8 -3 -6 -6 5 -6 15 -1 17 10 17
89 0 50 -2 90 -5 90 -3 0 -5 -38 -5 -84z"/>
<path d="M4900 1610 c0 -11 4 -20 9 -20 5 0 7 9 4 20 -3 11 -7 20 -9 20 -2 0
-4 -9 -4 -20z"/>
<path d="M813 1510 c0 -25 2 -35 4 -22 2 12 2 32 0 45 -2 12 -4 2 -4 -23z"/>
<path d="M801 1438 c-3 -60 -17 -77 -68 -81 l-48 -3 52 -2 c50 -2 52 -1 63 33
6 19 9 45 7 57 -4 20 -4 20 -6 -4z"/>
<path d="M2730 1394 c0 -16 5 -36 10 -44 6 -10 7 -2 3 25 -7 49 -13 58 -13 19z"/>
<path d="M368 1343 c56 -2 148 -2 205 0 56 1 10 3 -103 3 -113 0 -159 -2 -102
-3z"/>
</g>
</svg>
